<?xml version="1.0" encoding="utf-8"?>
<!-- Generator: Adobe Illustrator 15.0.0, SVG Export Plug-In . SVG Version: 6.00 Build 0)  -->
<!DOCTYPE svg PUBLIC "-//W3C//DTD SVG 1.1//EN" "http://www.w3.org/Graphics/SVG/1.1/DTD/svg11.dtd">
<svg version="1.1" id="Layer_1" xmlns="http://www.w3.org/2000/svg" xmlns:xlink="http://www.w3.org/1999/xlink" x="0px" y="0px"
	 width="316.854px" height="365.168px" viewBox="0 0 316.854 365.168" enable-background="new 0 0 316.854 365.168"
	 xml:space="preserve" aria-labelledby="title" aria-describedby="desc" role="img">
<title id="title">Icon of medical documents.</title>
<desc id="desc">Stylized icon of a medical paper with rounded corners, a checkmark, and lines representing inormation.</desc>
<filter id="dropshadow" height="130%">
  <feGaussianBlur in="SourceAlpha" stdDeviation="3"/> <!-- stdDeviation is how much to blur -->
  <feOffset dx="2" dy="2" result="offsetblur"/> <!-- how much to offset -->
  <feComponentTransfer xmlns="http://www.w3.org/2000/svg">
    <feFuncA type="linear" slope="0.4"/>
  </feComponentTransfer>
  <feMerge> 
    <feMergeNode/> <!-- this contains the offset blurred image -->
    <feMergeNode in="SourceGraphic"/> <!-- this contains the element that the filter is applied to -->
  </feMerge>
</filter>
<g style="filter:url(#dropshadow)">
	<g>
		<defs>
			<rect id="SVGID_1_" x="66.561" y="60.221" width="237.667" height="292.033"/>
		</defs>
		<clipPath id="SVGID_2_">
			<use xlink:href="#SVGID_1_"  overflow="visible"/>
		</clipPath>
		<path clip-path="url(#SVGID_2_)" fill="#FFFFFF" d="M244.694,347.753H76.061c-2.75,0-5-2.25-5-5V69.721c0-2.75,2.25-5,5-5h218.667
			c2.75,0,5,2.25,5,5v211.263L244.694,347.753z"/>
		<path clip-path="url(#SVGID_2_)" fill="none" stroke="#5CA4BB" stroke-width="9" stroke-miterlimit="10" d="M244.694,347.753
			H76.061c-2.75,0-5-2.25-5-5V69.721c0-2.75,2.25-5,5-5h218.667c2.75,0,5,2.25,5,5v211.263L244.694,347.753z"/>
		<path clip-path="url(#SVGID_2_)" fill="#5CA4BB" d="M241.452,347.753v-54.045c0-7.027,5.698-14.994,12.727-14.994h45.548
			L241.452,347.753z"/>
		<path clip-path="url(#SVGID_2_)" fill="#5CA4BB" d="M129.226,199.021v-12.612c0-0.886,0.725-1.611,1.611-1.611h139.402
			c0.887,0,1.611,0.725,1.611,1.611v12.612c0,0.886-0.725,1.611-1.611,1.611H130.837
			C129.951,200.632,129.226,199.907,129.226,199.021"/>
		<path clip-path="url(#SVGID_2_)" fill="#5CA4BB" d="M129.226,230.296v-12.611c0-0.887,0.725-1.611,1.611-1.611h139.402
			c0.887,0,1.611,0.725,1.611,1.611v12.611c0,0.885-0.725,1.611-1.611,1.611H130.837
			C129.951,231.908,129.226,231.181,129.226,230.296"/>
		<path clip-path="url(#SVGID_2_)" fill="#5CA4BB" d="M129.226,261.572v-12.613c0-0.885,0.725-1.611,1.611-1.611h139.402
			c0.887,0,1.611,0.727,1.611,1.611v12.613c0,0.885-0.725,1.609-1.611,1.609H130.837
			C129.951,263.181,129.226,262.457,129.226,261.572"/>
		<path clip-path="url(#SVGID_2_)" fill="#5CA4BB" d="M129.226,293.318v-13.555c0-0.627,0.513-1.139,1.139-1.139h69.034
			c0.626,0,1.14,0.512,1.14,1.139v13.555c0,0.627-0.514,1.139-1.14,1.139h-69.034C129.739,294.457,129.226,293.945,129.226,293.318"
			/>
		<path clip-path="url(#SVGID_2_)" fill="#FFFFFF" d="M185.395,162.919c-22.209,0-40.277-18.068-40.277-40.277
			c0-22.208,18.068-40.277,40.277-40.277c22.207,0,40.276,18.069,40.276,40.277C225.671,144.851,207.602,162.919,185.395,162.919"/>
		<path clip-path="url(#SVGID_2_)" fill="#5CA4BB" d="M185.394,86.865c19.759,0,35.777,16.018,35.777,35.777
			c0,19.759-16.019,35.777-35.777,35.777s-35.777-16.018-35.777-35.777C149.617,102.883,165.635,86.865,185.394,86.865
			 M185.394,77.865c-24.69,0-44.777,20.087-44.777,44.777s20.087,44.777,44.777,44.777c24.69,0,44.777-20.087,44.777-44.777
			S210.084,77.865,185.394,77.865"/>
	</g>
	
		<text transform="matrix(-0.7071 -0.7071 -0.7071 0.7071 183.6382 139.1479)" fill="#FFFFFF" font-family="'MyriadPro-Regular'" font-size="43.9796" aria-hidden="true">L</text>
	<g>
		<defs>
			<rect id="SVGID_3_" x="66.561" y="60.221" width="237.667" height="292.033"/>
		</defs>
		<clipPath id="SVGID_4_">
			<use xlink:href="#SVGID_3_"  overflow="visible"/>
		</clipPath>
		<polygon clip-path="url(#SVGID_4_)" fill="none" stroke="#5CA4BB" stroke-width="9" stroke-miterlimit="10" points="
			181.273,136.784 169.611,125.123 171.881,122.852 180.837,131.808 199.527,113.118 202.233,115.824 		"/>
	</g>
</g>
<g style="filter:url(#dropshadow)" aria-hidden="true">
	<g>
		<defs>
			<rect id="SVGID_5_" x="11.313" y="13.592" width="237.666" height="292.032"/>
		</defs>
		<clipPath id="SVGID_6_">
			<use xlink:href="#SVGID_5_"  overflow="visible"/>
		</clipPath>
		<path clip-path="url(#SVGID_6_)" fill="#FFFFFF" d="M189.446,301.125H20.813c-2.75,0-5-2.25-5-5V23.092c0-2.75,2.25-5,5-5h218.666
			c2.75,0,5,2.25,5,5v211.263L189.446,301.125z"/>
		<path clip-path="url(#SVGID_6_)" fill="none" stroke="#097EA0" stroke-width="9" stroke-miterlimit="10" d="M189.446,301.125
			H20.813c-2.75,0-5-2.25-5-5V23.092c0-2.75,2.25-5,5-5h218.666c2.75,0,5,2.25,5,5v211.263L189.446,301.125z"/>
		<path clip-path="url(#SVGID_6_)" fill="#097EA0" d="M186.204,301.125V247.08c0-7.027,5.699-14.994,12.727-14.994h45.549
			L186.204,301.125z"/>
		<path clip-path="url(#SVGID_6_)" fill="#097EA0" d="M73.978,152.392v-12.611c0-0.887,0.725-1.611,1.61-1.611h139.402
			c0.887,0,1.611,0.725,1.611,1.611v12.611c0,0.887-0.725,1.611-1.611,1.611H75.588C74.703,154.003,73.978,153.279,73.978,152.392"
			/>
		<path clip-path="url(#SVGID_6_)" fill="#097EA0" d="M59.524,146.085c0,4.373-3.545,7.918-7.918,7.918
			c-4.371,0-7.916-3.545-7.916-7.918c0-4.371,3.545-7.916,7.916-7.916C55.979,138.169,59.524,141.714,59.524,146.085"/>
		<path clip-path="url(#SVGID_6_)" fill="#097EA0" d="M73.978,183.667v-12.611c0-0.887,0.725-1.611,1.61-1.611h139.402
			c0.887,0,1.611,0.725,1.611,1.611v12.611c0,0.885-0.725,1.611-1.611,1.611H75.588C74.703,185.279,73.978,184.552,73.978,183.667"
			/>
		<path clip-path="url(#SVGID_6_)" fill="#097EA0" d="M59.524,177.361c0,4.373-3.545,7.918-7.918,7.918
			c-4.371,0-7.916-3.545-7.916-7.918c0-4.371,3.545-7.916,7.916-7.916C55.979,169.445,59.524,172.99,59.524,177.361"/>
		<path clip-path="url(#SVGID_6_)" fill="#097EA0" d="M73.978,214.943V202.33c0-0.885,0.725-1.611,1.61-1.611h139.402
			c0.887,0,1.611,0.727,1.611,1.611v12.613c0,0.885-0.725,1.609-1.611,1.609H75.588C74.703,216.552,73.978,215.828,73.978,214.943"
			/>
		<path clip-path="url(#SVGID_6_)" fill="#097EA0" d="M59.524,208.636c0,4.371-3.545,7.916-7.918,7.916
			c-4.371,0-7.916-3.545-7.916-7.916s3.545-7.918,7.916-7.918C55.979,200.718,59.524,204.265,59.524,208.636"/>
		<path clip-path="url(#SVGID_6_)" fill="#097EA0" d="M73.978,246.689v-13.555c0-0.627,0.513-1.139,1.139-1.139h69.034
			c0.625,0,1.139,0.512,1.139,1.139v13.555c0,0.627-0.514,1.139-1.139,1.139H75.117C74.491,247.828,73.978,247.316,73.978,246.689"
			/>
		<path clip-path="url(#SVGID_6_)" fill="#FFFFFF" d="M130.147,116.291c-22.21,0-40.277-18.068-40.277-40.277
			c0-22.208,18.067-40.277,40.277-40.277c22.207,0,40.275,18.069,40.275,40.277C170.422,98.222,152.354,116.291,130.147,116.291"/>
		<path clip-path="url(#SVGID_6_)" fill="#097EA0" d="M130.145,40.237c19.76,0,35.777,16.018,35.777,35.776
			s-16.018,35.777-35.777,35.777c-19.758,0-35.776-16.019-35.776-35.777S110.387,40.237,130.145,40.237 M130.145,31.237
			c-24.689,0-44.776,20.086-44.776,44.776s20.087,44.777,44.776,44.777c24.691,0,44.777-20.087,44.777-44.777
			S154.836,31.237,130.145,31.237"/>
	</g>
	
		<text transform="matrix(-0.7071 -0.7071 -0.7071 0.7071 128.3901 92.519)" fill="#FFFFFF" font-family="'MyriadPro-Regular'" font-size="43.9796" aria-hidden="true">L</text>
	<g>
		<defs>
			<rect id="SVGID_7_" x="11.313" y="13.592" width="237.666" height="292.032"/>
		</defs>
		<clipPath id="SVGID_8_">
			<use xlink:href="#SVGID_7_"  overflow="visible"/>
		</clipPath>
		<polygon clip-path="url(#SVGID_8_)" fill="none" stroke="#097EA0" stroke-width="9" stroke-miterlimit="10" points="
			126.026,90.155 114.364,78.495 116.633,76.223 125.589,85.179 144.28,66.489 146.985,69.196 		"/>
	</g>
</g>
</svg>
